solid Exported from Blender-2.93.5
facet normal -0.995004 -0.099831 0.000000
outer loop
vertex -23.780926 10.016855 32.845554
vertex -23.770941 9.917336 32.845554
vertex -23.770941 9.917336 33.245552
endloop
endfacet
facet normal -0.995004 -0.099832 0.000000
outer loop
vertex -23.780926 10.016855 32.845554
vertex -23.770941 9.917336 33.245552
vertex -23.780926 10.016855 33.245552
endloop
endfacet
facet normal -0.995005 -0.099820 0.000000
outer loop
vertex -23.770941 9.917336 32.845554
vertex -22.992746 2.160378 32.845554
vertex -22.992746 2.160378 33.245552
endloop
endfacet
facet normal -0.995005 -0.099822 0.000000
outer loop
vertex -23.770941 9.917336 32.845554
vertex -22.992746 2.160378 33.245552
vertex -23.770941 9.917336 33.245552
endloop
endfacet
facet normal -0.995006 -0.099819 0.000000
outer loop
vertex -24.499634 17.180885 33.245552
vertex -24.499634 17.180885 32.845554
vertex -23.780926 10.016855 32.845554
endloop
endfacet
facet normal -0.995005 -0.099821 0.000000
outer loop
vertex -24.499634 17.180885 33.245552
vertex -23.780926 10.016855 32.845554
vertex -23.780926 10.016855 33.245552
endloop
endfacet
facet normal -0.995006 -0.099820 0.000000
outer loop
vertex -25.008106 22.249321 33.245552
vertex -25.008106 22.249321 32.845554
vertex -24.499634 17.180885 32.845554
endloop
endfacet
facet normal -0.995005 -0.099821 0.000000
outer loop
vertex -25.008106 22.249321 33.245552
vertex -24.499634 17.180885 32.845554
vertex -24.499634 17.180885 33.245552
endloop
endfacet
facet normal 0.995000 0.099879 0.000000
outer loop
vertex -34.928452 8.898517 32.845554
vertex -34.928452 8.898517 33.245552
vertex -34.918465 8.798997 33.245552
endloop
endfacet
facet normal 0.995004 0.099831 0.000000
outer loop
vertex -34.928452 8.898517 32.845554
vertex -34.918465 8.798997 33.245552
vertex -34.918465 8.798997 32.845554
endloop
endfacet
facet normal 0.995005 0.099822 0.000000
outer loop
vertex -34.918465 8.798997 32.845554
vertex -34.918465 8.798997 33.245552
vertex -34.140274 1.042039 33.245552
endloop
endfacet
facet normal 0.995005 0.099820 0.000000
outer loop
vertex -34.918465 8.798997 32.845554
vertex -34.140274 1.042039 33.245552
vertex -34.140274 1.042039 32.845554
endloop
endfacet
facet normal 0.995005 0.099821 0.000000
outer loop
vertex -35.647160 16.062548 33.245552
vertex -34.928452 8.898517 33.245552
vertex -34.928452 8.898517 32.845554
endloop
endfacet
facet normal 0.995005 0.099820 0.000000
outer loop
vertex -35.647160 16.062548 33.245552
vertex -34.928452 8.898517 32.845554
vertex -35.647160 16.062548 32.845554
endloop
endfacet
facet normal 0.995005 0.099821 0.000000
outer loop
vertex -36.155632 21.130983 33.245552
vertex -35.647160 16.062548 33.245552
vertex -35.647160 16.062548 32.845554
endloop
endfacet
facet normal 0.995006 0.099819 0.000000
outer loop
vertex -36.155632 21.130983 33.245552
vertex -35.647160 16.062548 32.845554
vertex -36.155632 21.130983 32.845554
endloop
endfacet
facet normal 0.000000 0.000000 -1.000000
outer loop
vertex -25.008106 22.249321 33.245552
vertex -24.499634 17.180885 33.245552
vertex -35.647160 16.062548 33.245552
endloop
endfacet
facet normal 0.000000 0.000000 -1.000000
outer loop
vertex -25.008106 22.249321 33.245552
vertex -35.647160 16.062548 33.245552
vertex -36.155632 21.130983 33.245552
endloop
endfacet
facet normal 0.000007 0.000000 1.000000
outer loop
vertex -23.770941 9.917336 32.845554
vertex -23.780926 10.016855 32.845554
vertex -34.928452 8.898517 32.845554
endloop
endfacet
facet normal -0.000005 0.000000 1.000000
outer loop
vertex -23.770941 9.917336 32.845554
vertex -34.928452 8.898517 32.845554
vertex -34.918465 8.798997 32.845554
endloop
endfacet
facet normal -0.000000 0.000000 1.000000
outer loop
vertex -24.499634 17.180885 32.845554
vertex -25.008106 22.249321 32.845554
vertex -36.155632 21.130983 32.845554
endloop
endfacet
facet normal 0.000000 0.000000 1.000000
outer loop
vertex -24.499634 17.180885 32.845554
vertex -36.155632 21.130983 32.845554
vertex -35.647160 16.062548 32.845554
endloop
endfacet
facet normal 0.000000 0.000000 1.000000
outer loop
vertex -23.780926 10.016855 32.845554
vertex -24.499634 17.180885 32.845554
vertex -35.647160 16.062548 32.845554
endloop
endfacet
facet normal -0.000000 0.000000 1.000000
outer loop
vertex -23.780926 10.016855 32.845554
vertex -35.647160 16.062548 32.845554
vertex -34.928452 8.898517 32.845554
endloop
endfacet
facet normal 0.099819 -0.995006 0.000000
outer loop
vertex -25.008106 22.249321 32.845554
vertex -25.008106 22.249321 33.245552
vertex -36.155632 21.130983 33.245552
endloop
endfacet
facet normal 0.099823 -0.995005 0.000000
outer loop
vertex -25.008106 22.249321 32.845554
vertex -36.155632 21.130983 33.245552
vertex -36.155632 21.130983 32.845554
endloop
endfacet
facet normal -0.099821 0.995005 0.000000
outer loop
vertex -22.992746 2.160378 33.245552
vertex -22.992746 2.160378 32.845554
vertex -34.140274 1.042039 32.845554
endloop
endfacet
facet normal -0.099819 0.995006 0.000000
outer loop
vertex -22.992746 2.160378 33.245552
vertex -34.140274 1.042039 32.845554
vertex -34.140274 1.042039 33.245552
endloop
endfacet
facet normal 0.000000 0.000000 -1.000000
outer loop
vertex -23.780926 10.016855 33.245552
vertex -23.770941 9.917336 33.245552
vertex -34.918465 8.798997 33.245552
endloop
endfacet
facet normal 0.000003 0.000000 -1.000000
outer loop
vertex -23.780926 10.016855 33.245552
vertex -34.918465 8.798997 33.245552
vertex -34.928452 8.898517 33.245552
endloop
endfacet
facet normal 0.000000 0.000000 1.000000
outer loop
vertex -22.992746 2.160378 32.845554
vertex -23.770941 9.917336 32.845554
vertex -34.918465 8.798997 32.845554
endloop
endfacet
facet normal 0.000000 0.000000 1.000000
outer loop
vertex -22.992746 2.160378 32.845554
vertex -34.918465 8.798997 32.845554
vertex -34.140274 1.042039 32.845554
endloop
endfacet
facet normal -0.000001 0.000000 -1.000000
outer loop
vertex -23.770941 9.917336 33.245552
vertex -22.992746 2.160378 33.245552
vertex -34.140274 1.042039 33.245552
endloop
endfacet
facet normal 0.000001 0.000000 -1.000000
outer loop
vertex -23.770941 9.917336 33.245552
vertex -34.140274 1.042039 33.245552
vertex -34.918465 8.798997 33.245552
endloop
endfacet
facet normal -0.000000 0.000000 -1.000000
outer loop
vertex -24.499634 17.180885 33.245552
vertex -23.780926 10.016855 33.245552
vertex -34.928452 8.898517 33.245552
endloop
endfacet
facet normal 0.000000 0.000000 -1.000000
outer loop
vertex -24.499634 17.180885 33.245552
vertex -34.928452 8.898517 33.245552
vertex -35.647160 16.062548 33.245552
endloop
endfacet
endsolid Exported from Blender-2.93.5
